<svg xmlns="http://www.w3.org/2000/svg" viewBox="0 0 432.92 371.08"><defs><style>.cls-1{fill:#ceddd4;}.cls-2{fill:#2e6e5a;}.cls-3{fill:#0d5262;}.cls-4{fill:#fee6ab;}.cls-5{fill:#e7ae7b;}.cls-6{fill:#c35e33;}.cls-7{fill:#aed9d5;}.cls-8{fill:none;stroke:#231f20;stroke-linecap:round;stroke-miterlimit:10;stroke-width:2px;}</style></defs><g id="Layer_2" data-name="Layer 2"><path class="cls-1" d="M181,191.71H159.21v28H118.86v-28H41.51v-27l65.64-91.35H150l-59.58,85.5h29.69V134h39.09v24.88H181Z" transform="translate(-41.51 -70.46)"/><path class="cls-1" d="M220.46,213.66q-14.64-9-22.89-26.23t-8.26-40.87q0-23.62,8.26-40.87t22.89-26.24q14.63-9,33.45-9a62.26,62.26,0,0,1,33.24,9q14.63,9,22.89,26.24t8.26,40.87q0,23.63-8.26,40.87t-22.89,26.23q-14.64,9-33.24,9Q235.1,222.65,220.46,213.66Zm50.07-35q6.17-10.14,6.17-32.09t-6.17-32.09q-6.16-10.14-16.62-10.14-10.66,0-16.83,10.14t-6.17,32.09q0,21.94,6.17,32.09t16.83,10.13Q264.37,188.78,270.53,178.65Z" transform="translate(-41.51 -70.46)"/><path class="cls-1" d="M470.49,191.71H448.75v28H408.4v-28H331.05v-27l65.64-91.35h42.86L380,158.89h29.68V134h39.1v24.88h21.74Z" transform="translate(-41.51 -70.46)"/><ellipse class="cls-1" cx="217.75" cy="317.64" rx="215.17" ry="53.45"/><path class="cls-2" d="M173.28,198.32s-.85-12,1.93-19.93,6.55-19.36,6.41-24.57-2.26-32.16-1.33-35.47,1.47-5.39,4.07-5.39,20,3,35.76,8.58,15.88,5.62,17.74,5.62l39.78-.15c1.5,0,11.16.41,14.39-.88s28.3-12,32.25-11.3,3.36.35,3.36.35l2.85,3,2.28,8.29.43,23s-1.91,12.13-1.13,14.78,5.31,13.95,5.31,13.95l1.13,18,1.14,3.24,13.3,8.35,9.87,7.43,5.89,4.69,22,14.07,13,10.4a128.06,128.06,0,0,1,9.66,9.2c4.1,4.47,15.24,19.63,15.24,19.63l7.28,16.33a47.58,47.58,0,0,1,1.85,8.55c.4,4.07-.31,17.91-.31,17.91l-2.76,8.22-10.43,12.13-80.85,50-2.9,4.09s-13.69,1.89-27.83,2.52-33.14,1.78-47.85,2.44-40.21,0-40.21,0l-23.77-2.75-10.71-3.35-5.72-4.52-84.31-53.13s-3.18-.64-6.38-1.11-6-.79-6-.79l-2.44-1.62-3.56-4.68-3-9.17-.23-9.75,2.24-14.65s5.33-15.4,10.17-21.53,18.81-21,18.81-21,18.67-15.26,23.73-18.54,14.62-8.91,14.62-8.91l9.06-8.7,10.89-8.34,5.14-4.55" transform="translate(-41.51 -70.46)"/><path class="cls-3" d="M79.39,297s5.74,18.51,11.87,22,9.45,1.17,9.45,1.17L97.22,332.3,86.47,329l-6-8.91-2.09-15Z" transform="translate(-41.51 -70.46)"/><path class="cls-3" d="M188.71,367.24s8.29,5.58,14.15,4.58,24.57-8.29,51-7.58,41.43,4.93,46.28,3.83,9-29.59,22.57-39.35,25.94-10.89,25.94-10.89L345,389.53l-5.29.67s-28.31,3-46.15,3.64c-18.84.66-57.13,2.65-74.27,1.6s-23.86-3.67-23.86-3.67l-11-5.95Z" transform="translate(-41.51 -70.46)"/><path class="cls-3" d="M438.05,311.65c-5.34,4-8.34,6.49-13.62,6.18s-12.2-3.93-12.2-3.93v10.72l7.88,4.1,11-2.33,3.58-2.17Z" transform="translate(-41.51 -70.46)"/><path class="cls-3" d="M181.55,114.63A33.29,33.29,0,0,1,190,132.82c1.43,11.28,1.43,34.42,1.43,34.42L185.14,195l-11.71,4.78s.28-15.85,1.57-19.78,3-9.93,3-9.93l3.35-12.21-.07-12.15-.85-11.41,0-16.73A7.67,7.67,0,0,1,181.55,114.63Z" transform="translate(-41.51 -70.46)"/><path class="cls-4" d="M178.14,197.4s-.3-27.72,15.85-43.08,21.5-17.08,21.5-17.08,7.4-3.06,11.22-3,13.13,2,13.13,2l12.78,6.83,4.91,2.71,13.16-6.91s7.49-3.56,13.45-3.13,15,3,15,3,9.3,4.59,11.7,6.19S323,156.09,323,156.09l5.79,9.74,3.13,11,1.55,11.87-.18,7.53S352,208,360.65,217.33s19.31,22.5,20.72,30.44,1.9,12.23.76,16.15-5,11.67-5,11.67l-7.31,8.31-9.13,4.61-14.23,1.24L336,288.61,321.43,286l-13.86-2.7-12.18-2.08-14.94-1.84-9.89-.69-11.13-.2-10.57.4-12.52,1.07-9.05.94c-5.13.54-23,2.13-23,2.13l-17.71.51-9.41-.68-6.44-1.27-6.19-2.2-6-3.66s-2.72-1.25-5.78-6.6a71.69,71.69,0,0,1-5.19-12.34l-1.25-13.94,1.82-8.84,2.94-7.44,4-7.17,5.36-7.36,4.21-4.83,5-4.91,3.84-2.53Z" transform="translate(-41.51 -70.46)"/><path class="cls-4" d="M93.07,346.34,98,333.45l4.09-8.91,10.5-10.22,12.55-7.93,9.7-1.69,10.61-2,7.23-.69,9.93,1.74,11.73,4.8,7.13,4.88,5.14,4.9a56.75,56.75,0,0,1,3.84,5.15,74.23,74.23,0,0,1,4.26,6.91L198.46,341l1.12,7.55-.79,14.09-3.94,13.29L187,389.34,175.82,400s-6.48,3.74-9.39,5-9.8,3.16-9.8,3.16L143,409.35l-14.5-2.44-9.64-4-7-4.39L100.14,389l-3.74-7.78s-3.78-8.84-4.54-16.1a73.76,73.76,0,0,1,.43-15.53Z" transform="translate(-41.51 -70.46)"/><path class="cls-4" d="M353,398.9a58,58,0,0,0,12.64,6.22c7.34,2.55,20.27,3.52,20.27,3.52l11.87-1.17,7.14-2,11-5.37,7.38-5.82,6.78-8.22a21.69,21.69,0,0,0,2.79-4.87c1.23-3,2.86-17.09,2.86-17.09L432.9,349.6l-6.07-11.81-9.76-13.17s-6.39-5.66-11.84-8.3-18.37-6.08-18.37-6.08l-14.65-1.5-12.23,2-11.36,4.82s-8,5-11.41,9.79-8.27,16-8.27,16L327.61,353l1.68,13.64,3.06,7.37,5.51,9.91,5.58,7.57Z" transform="translate(-41.51 -70.46)"/><path class="cls-5" d="M194.58,153.63s-4,18,.85,24.76a33.18,33.18,0,0,0,10.11,9.47l-15.81,5-11.59,4.56L179.5,180l4.64-12.57Z" transform="translate(-41.51 -70.46)"/><path class="cls-5" d="M169.37,202.47l-1.6,20a58.1,58.1,0,0,0,28.37,54.69l9.72,5.74-19.29,1.5-25-6.6s-9.69-7.22-11.78-13.77l-2.09-6.56-1.35-14,4-15.51,8.5-13.95Z" transform="translate(-41.51 -70.46)"/><path class="cls-5" d="M327.6,350.67s7.92-8.94,29.23-7.68,50.31,19.25,48.88,40.54-18.84,25.84-39.92,21.64-34.86-33.35-34.86-33.35-3.21-16.19-3.22-16.38S327.6,350.67,327.6,350.67Z" transform="translate(-41.51 -70.46)"/><path class="cls-5" d="M124.93,405.89s-10.54-11.36-8-27.43,11.4-43.88,42.46-43.26,39.72,20.86,39.72,20.86L195.63,374l-10.28,16.93s-12.81,12.71-21.83,15.71-22,2.75-22,2.75Z" transform="translate(-41.51 -70.46)"/><path class="cls-6" d="M354.86,391.52c2.52,2.3,6,4,6.1,4.21s8.63,2.76,8.63,2.76l10.12.38,4.56-2.29,4.66-3,2.73-6.05.63-5.47-2-6.7-2.2-4.28L384.86,367l-4.13-3.85a18.05,18.05,0,0,0-2.89-2.2c-1.88-1.18-8.52-4.39-8.52-4.39s-5.09-.54-5.3-.54-4.4-.32-5.2-.37-5,.59-5,.59a31.65,31.65,0,0,0-6.38,4.82,15.52,15.52,0,0,0-3.54,7.34l.27,6.64,1.23,4.07,3.38,6.64S352,388.89,354.86,391.52Z" transform="translate(-41.51 -70.46)"/><path class="cls-6" d="M142.61,362.71l-4.93,7.61-2.25,6.33-.43,7.27,3.11,9.65,7,4.71,7.59,1.68s9.23-1.25,10.09-1.57,6.54-2.36,10-5.25,9-11.8,9-11.8l2.18-8.88-1.52-8.89a40.58,40.58,0,0,0-3.77-4.82c-1.48-1.4-8.09-4.66-8.09-4.66l-7-.72-8.27,1.52-7.05,3.43s-1,.95-2.61,2.4A10.72,10.72,0,0,1,142.61,362.71Z" transform="translate(-41.51 -70.46)"/><path class="cls-7" d="M96.86,374a8.66,8.66,0,0,0,4.07-2.79,23.46,23.46,0,0,0,3.45-6.57c.48-1.86-.31-4.5-1.38-5.21s-6.79-1.05-6.79-1.05l-10.3,2.07s-3.09,1.15-3,1.69,2.55,4.36,2.55,4.36,2.24,1.68,4,3.19A59.14,59.14,0,0,0,96.86,374Z" transform="translate(-41.51 -70.46)"/><path class="cls-7" d="M107.3,336.19c1.7-.73,5.29-4.5,6.74-6.73s3.25-8.93,2.89-9.72-11.29-6.22-14.07-6.5-7.85-1.14-8.5-.5,5,14.73,5.42,16,4.15,7.32,4.86,7.44A17.42,17.42,0,0,0,107.3,336.19Z" transform="translate(-41.51 -70.46)"/><path class="cls-7" d="M133.79,312.33s7.64,1.7,11.42-.3,5.44-4.5,5.15-5.86-11.57-13.91-14.5-16.42-3.36-3.29-3.65-2.22-2.65,14-2.61,16.71.11,7,1.4,7.72A4.41,4.41,0,0,0,133.79,312.33Z" transform="translate(-41.51 -70.46)"/><path class="cls-7" d="M95,339.69c-.14-.27-4.21-8.32-3.43-9.67s3.08-3.28,4.47-2.63,3.23,3.19,3.23,3.19Z" transform="translate(-41.51 -70.46)"/><path class="cls-7" d="M83,325.53c.07.1-.37,10.61-.1,11.25s1.29.62,1.29.62l5.5-6.63S86.07,329,85.11,328,83,325.53,83,325.53Z" transform="translate(-41.51 -70.46)"/><path class="cls-7" d="M82.42,328.46s-7.28,3.14-8,2.25,4.51-11.59,5.2-11.7S83,326.46,83,326.46Z" transform="translate(-41.51 -70.46)"/><path class="cls-7" d="M77.68,321s-8.28-.89-8.18-2,8.85-11.13,8.85-11.13l.72,4.95.32,4.92Z" transform="translate(-41.51 -70.46)"/><path class="cls-7" d="M74,312.1s-5.35-1.21-5-1.64,9.66-10.1,9.66-10.1,0,5.47,0,6.64-1.8,2.51-1.8,2.51Z" transform="translate(-41.51 -70.46)"/><path class="cls-7" d="M380.33,317.83s-4.54-3.3-3.69-5,14.9-15.41,14.9-15.41,2.85-1.12,3-1.07,2.44,11.33,2.57,15.9.83,6-.59,6.64-8.59,1.46-10,1.24A21.77,21.77,0,0,1,380.33,317.83Z" transform="translate(-41.51 -70.46)"/><path class="cls-7" d="M410.07,327.32c-.07.64,1.82,8.75,3.84,10.73s4.66,4.77,6.45,4.91,3.64-.29,3.64-.5,8.79-18.57,8.79-18.57l-.08-1.65a41.55,41.55,0,0,0-12.71.82A36.2,36.2,0,0,0,410.07,327.32Z" transform="translate(-41.51 -70.46)"/><path class="cls-7" d="M429,333s4.09,5.24,4.67,5,.56-12.85.56-12.85L429,329.56Z" transform="translate(-41.51 -70.46)"/><path class="cls-7" d="M433.57,327.6s5.16,2.9,7,3,2.93.14,2.52-.71-5.9-11-5.9-11Z" transform="translate(-41.51 -70.46)"/><path class="cls-7" d="M438.39,308.74s.41,3.43-.1,4.72a55.75,55.75,0,0,0-1.07,7.12s6.81.23,8.42-.37,1.86-.7,1.36-2S438.39,308.74,438.39,308.74Z" transform="translate(-41.51 -70.46)"/><path class="cls-7" d="M442.93,311.89s5.38-.9,4.92-1.53-9.8-10-9.8-10a38.39,38.39,0,0,1,.34,4.53,17.8,17.8,0,0,0,.17,3Z" transform="translate(-41.51 -70.46)"/><path class="cls-7" d="M422.93,366.17c-.22,2.15.71,7.07,2.78,9.15s4.12,5.28,7,3.23,12.25-9.31,11.13-10.38-16.2-5.14-18.13-3.85Z" transform="translate(-41.51 -70.46)"/><path class="cls-7" d="M277.31,172.28s1.93-4.29,2.36-4.13,6,5.34,5.09,5.72-7.63-.62-7.63-.62Z" transform="translate(-41.51 -70.46)"/><path class="cls-7" d="M241.18,173.09c0-.21-2.76-5-3.35-4.85s-3.72,4.91-3.59,5.2S241.18,173.09,241.18,173.09Z" transform="translate(-41.51 -70.46)"/><g id="LINE"><path class="cls-8" d="M332.37,165.45c1.29,4.5,6.06,12.11,6.61,20.74s-.47,12.63-.47,12.63" transform="translate(-41.51 -70.46)"/><path class="cls-8" d="M275,127c7.13,0,14-.07,15.77-.45,3.31-.74,28.17-12.66,35.63-11.75,6.45.8,7.31,14.87,7.13,27.89-.14,10-1.35,15.75-1.42,19.64" transform="translate(-41.51 -70.46)"/><path class="cls-8" d="M181.55,114.63c3.86-4.4,19.64.73,34.87,5.69s18,6.6,19.44,6.79,16.15-.19,22.94-.19c1.95,0,5.16,0,8.8.06" transform="translate(-41.51 -70.46)"/><path class="cls-8" d="M176,176.7c2.21-6.89,5.11-15.06,5.58-21.52.62-8.3-3.05-31.26-.87-38.76" transform="translate(-41.51 -70.46)"/><path class="cls-8" d="M173.43,199.74a58,58,0,0,1,0-13.55,30,30,0,0,1,.65-3.28" transform="translate(-41.51 -70.46)"/><path class="cls-8" d="M313.26,146.56c8.17,6.16,14.23,14.24,16.82,22.75a75.22,75.22,0,0,1,3.24,26.89" transform="translate(-41.51 -70.46)"/><path class="cls-8" d="M229.08,134.26c16.43.64,25.32,11.56,28.45,11.56s16.41-13.58,34.75-9.17A57.13,57.13,0,0,1,309.63,144" transform="translate(-41.51 -70.46)"/><path class="cls-8" d="M178.14,197.4s-1.45-12.22,5.25-27c6.07-13.39,23.08-32.8,40.33-35.78" transform="translate(-41.51 -70.46)"/><path class="cls-8" d="M256.35,161.05" transform="translate(-41.51 -70.46)"/><path class="cls-8" d="M212.56,158.85a53.45,53.45,0,0,1,12-2.94,100.92,100.92,0,0,1,17.71-.18" transform="translate(-41.51 -70.46)"/><path class="cls-8" d="M307,159.52a52.66,52.66,0,0,0-12-2.94,100.9,100.9,0,0,0-17.71-.18" transform="translate(-41.51 -70.46)"/><path class="cls-8" d="M230.45,174.26s14.86-1.35,27.89-1.37c15.69,0,29.72,1.37,29.72,1.37" transform="translate(-41.51 -70.46)"/><path class="cls-8" d="M233.79,174s3.05-5.91,3.85-5.84,3.54,4.73,3.54,4.73" transform="translate(-41.51 -70.46)"/><path class="cls-8" d="M277,173.43s1.47-5.28,2.45-5.28,5.44,5.83,5.44,5.83" transform="translate(-41.51 -70.46)"/><path class="cls-8" d="M376.66,227.88c10.91,11.43,19,24.17,25.62,40,11,26.23,10.07,53.32,10.07,53.32" transform="translate(-41.51 -70.46)"/><path class="cls-8" d="M232,183a262.35,262.35,0,0,1,28.25-1.35c35.59,0,65.32,7.34,90.64,24.77a171.84,171.84,0,0,1,21.72,17.46" transform="translate(-41.51 -70.46)"/><path class="cls-8" d="M129.87,250.86c10-24,27.68-45.39,51.75-55a195.31,195.31,0,0,1,35.47-10.72" transform="translate(-41.51 -70.46)"/><path class="cls-8" d="M119.67,309.17a142.62,142.62,0,0,1,7.08-50l.49-1.42" transform="translate(-41.51 -70.46)"/><path class="cls-8" d="M338.51,198.82c32.57,24,43.48,42.49,44.28,56.9" transform="translate(-41.51 -70.46)"/><path class="cls-8" d="M234.29,280.14c8.09-.83,16-1.52,23.41-1.66,59.63-1.1,97.24,25.87,117.06.37,3.82-4.92,6.95-10.7,7.83-17.53" transform="translate(-41.51 -70.46)"/><path class="cls-8" d="M154.69,272.08c5.82,6.74,14.94,10.63,28.24,11.26,15.32.73,31.25-1.08,46.52-2.7" transform="translate(-41.51 -70.46)"/><path class="cls-8" d="M170.72,201.28s-25.86,21.6-24.39,46.33c.44,7.44,1.92,13.83,4.69,19.07" transform="translate(-41.51 -70.46)"/><path class="cls-8" d="M314.21,392.84c11.6-.69,20.83-1.53,28.25-2.64" transform="translate(-41.51 -70.46)"/><path class="cls-8" d="M269,394.68c16.8-.5,30.79-1,42.49-1.68" transform="translate(-41.51 -70.46)"/><path class="cls-8" d="M187.92,388.09c5.74,3.72,20.6,8.22,59,7.2l14.45-.39" transform="translate(-41.51 -70.46)"/><path class="cls-8" d="M358.17,401.93c-25.06-12.92-35.28-42.81-28.55-62.78a44.52,44.52,0,0,1,5.09-10.43" transform="translate(-41.51 -70.46)"/><path class="cls-8" d="M431.12,384.51c-12.37,21-40.45,30.15-67.3,19.94" transform="translate(-41.51 -70.46)"/><path class="cls-8" d="M426.61,337.42c5.56,9.09,8.7,19.12,9.18,27.84" transform="translate(-41.51 -70.46)"/><path class="cls-8" d="M397.09,312.66l1.44.53a53.2,53.2,0,0,1,17.55,11.15" transform="translate(-41.51 -70.46)"/><path class="cls-8" d="M339.4,322.87c9.77-10.18,24.29-15.05,39.85-14" transform="translate(-41.51 -70.46)"/><path class="cls-8" d="M440.32,372.79c2.29-2,3.52-3.36,3.52-4.11,0-1.58-10.95-4.13-16.67-4.53a4.28,4.28,0,0,0-4.09,2.24,4.72,4.72,0,0,0-.25,3.92,18.31,18.31,0,0,0,.74,1.7" transform="translate(-41.51 -70.46)"/><path class="cls-8" d="M424.84,374.2c1.79,2.72,4.23,5.06,6.28,4.69,1.48-.27,4.54-2.29,7.29-4.49" transform="translate(-41.51 -70.46)"/><path class="cls-8" d="M417.83,341.73c2.23,1.61,3.9,1.88,5,1.33,1.47-.73,11.47-18.8,9.91-20.73-.57-.7-3.64-.61-7.36-.06" transform="translate(-41.51 -70.46)"/><path class="cls-8" d="M421,323.06c-5.41,1.17-10.71,3-11,4.59-.7,3.48,1.92,8.62,5.41,12" transform="translate(-41.51 -70.46)"/><path class="cls-8" d="M396.5,306c-.59-5.1-1.46-9.91-2.38-10-1.84-.18-15.93,12.48-17.46,16.7-.53,1.46,1.09,3.58,3.67,5.13" transform="translate(-41.51 -70.46)"/><path class="cls-8" d="M385.86,319.76c5.32.64,10.82.64,11.28-2a49.21,49.21,0,0,0-.28-8.08" transform="translate(-41.51 -70.46)"/><path class="cls-8" d="M353,390.2c-9.18-8.4-12.35-20.2-6.94-28" transform="translate(-41.51 -70.46)"/><path class="cls-8" d="M381.07,363.14c10.42,8.45,14.29,21.17,8.58,29.39-6.09,8.76-20.79,9.09-32.82.72" transform="translate(-41.51 -70.46)"/><path class="cls-8" d="M348.65,359.41c7.05-5.89,19.67-5.25,30.25,2.1" transform="translate(-41.51 -70.46)"/><path class="cls-8" d="M434.47,377.44c-.19.62-.67,1.65-.91,2.23" transform="translate(-41.51 -70.46)"/><path class="cls-8" d="M169.19,403.87c25.13-12.28,35.29-43.91,28.45-65.95a53.54,53.54,0,0,0-5.16-11.63" transform="translate(-41.51 -70.46)"/><path class="cls-8" d="M95.79,380.09c12.52,23.51,40.78,35.35,67.73,26.13" transform="translate(-41.51 -70.46)"/><path class="cls-8" d="M100.14,329.46A66.35,66.35,0,0,0,91,359" transform="translate(-41.51 -70.46)"/><path class="cls-8" d="M129.72,304.7l-1.44.47A48.21,48.21,0,0,0,110.68,316" transform="translate(-41.51 -70.46)"/><path class="cls-8" d="M187.74,319.65c-9.86-11.67-24.46-17.92-40.1-17.82" transform="translate(-41.51 -70.46)"/><path class="cls-8" d="M86.5,366.79c-2.31-2.27-3.55-3.87-3.55-4.69,0-1.71,11-3.73,16.73-3.76a4.62,4.62,0,0,1,4.13,2.69,5.51,5.51,0,0,1,.26,4.26,16.89,16.89,0,0,1-.73,1.79" transform="translate(-41.51 -70.46)"/><path class="cls-8" d="M102.07,369.37c-1.79,2.81-4.23,5.18-6.3,4.64-1.49-.39-4.57-2.78-7.34-5.35" transform="translate(-41.51 -70.46)"/><path class="cls-8" d="M109,334.73c-2.24,1.58-3.92,1.77-5,1.1-1.48-.9-11.6-21.12-10-23.1.56-.71,3.65-.41,7.39.43" transform="translate(-41.51 -70.46)"/><path class="cls-8" d="M105.71,314.32c5.44,1.63,10.78,3.95,11.11,5.71.71,3.81-1.91,9.2-5.4,12.63" transform="translate(-41.51 -70.46)"/><path class="cls-8" d="M130.29,297.54c.57-5.48,1.43-10.62,2.35-10.66,1.85-.07,16.06,14.57,17.62,19.24.54,1.62-1.09,3.81-3.67,5.31" transform="translate(-41.51 -70.46)"/><path class="cls-8" d="M141,313.14c-5.35.33-10.88,0-11.35-2.95a57.2,57.2,0,0,1,.25-8.72" transform="translate(-41.51 -70.46)"/><path class="cls-8" d="M174.32,391.54c9.19-8.47,12.33-21,6.87-29.78" transform="translate(-41.51 -70.46)"/><path class="cls-8" d="M146,360.37c-10.44,8.43-14.28,21.92-8.51,31.2,6.16,9.89,20.93,11.24,33,3" transform="translate(-41.51 -70.46)"/><path class="cls-8" d="M178.59,358.54c-7.11-6.85-19.79-7-30.39.21" transform="translate(-41.51 -70.46)"/><path class="cls-8" d="M89.66,270.91c-6.49,10.18-10.86,21.52-11,33.66-.28,18.76,5.74,25,12.41,26.29" transform="translate(-41.51 -70.46)"/><path class="cls-8" d="M132.11,229.79c-12.13,8.24-28.21,21-39.56,36.85" transform="translate(-41.51 -70.46)"/><path class="cls-8" d="M149.21,219.37s-5.91,3-14.31,8.55" transform="translate(-41.51 -70.46)"/><path class="cls-8" d="M82.71,332.3c0-3.42.07-7.1.07-7.1" transform="translate(-41.51 -70.46)"/><path class="cls-8" d="M89.83,330.58s-5.7,7.59-6.56,7.47c-.28,0-.42-1.38-.5-3.18" transform="translate(-41.51 -70.46)"/><path class="cls-8" d="M76.33,324.54c1.68-3,3.64-6.06,3.64-6.06" transform="translate(-41.51 -70.46)"/><path class="cls-8" d="M82.72,328.32s-7.16,3.25-8.56,2.27c-.47-.33,0-1.79.89-3.59" transform="translate(-41.51 -70.46)"/><path class="cls-8" d="M72.14,314.76c2.85-3.36,6.47-7.17,6.47-7.17" transform="translate(-41.51 -70.46)"/><path class="cls-8" d="M78.35,321.07s-9.27-.88-9.39-2a8.07,8.07,0,0,1,1.73-2.6" transform="translate(-41.51 -70.46)"/><path class="cls-8" d="M74,305.06c2.45-2.42,4.88-4.7,4.88-4.7" transform="translate(-41.51 -70.46)"/><path class="cls-8" d="M74.67,311.89s-5.9-.2-5.71-1.3a17.18,17.18,0,0,1,3-3.47" transform="translate(-41.51 -70.46)"/><path class="cls-8" d="M95.36,327.61c2.16.13,3.72,2.79,3.72,2.79" transform="translate(-41.51 -70.46)"/><path class="cls-8" d="M92.83,335.2c-.91-2-1.7-3.91-1.55-4.43a5.11,5.11,0,0,1,2-2.6" transform="translate(-41.51 -70.46)"/><path class="cls-8" d="M95.15,339.92s-.74-1.42-1.57-3.14" transform="translate(-41.51 -70.46)"/><path class="cls-8" d="M437.56,296.55a54.71,54.71,0,0,1,.73,8c.2,13.57-2.9,20.61-7.15,23.94" transform="translate(-41.51 -70.46)"/><path class="cls-8" d="M410.47,250.6c11.32,11.12,21.56,24.73,25.78,40" transform="translate(-41.51 -70.46)"/><path class="cls-8" d="M367.7,219.37a200.87,200.87,0,0,1,38,26.71" transform="translate(-41.51 -70.46)"/><path class="cls-8" d="M434.19,332.58c.05-3.5-.07-7.38-.07-7.38" transform="translate(-41.51 -70.46)"/><path class="cls-8" d="M429,333c1.75,2.2,4.14,5.08,4.67,5,.17,0,.3-.58.38-1.45" transform="translate(-41.51 -70.46)"/><path class="cls-8" d="M439.68,330.38c1.36.37,2.57.55,3.07.21,1.41-1-5.81-12.11-5.81-12.11" transform="translate(-41.51 -70.46)"/><path class="cls-8" d="M434.18,328.32s1.38.63,3,1.24" transform="translate(-41.51 -70.46)"/><path class="cls-8" d="M444.88,320.21c1.67-.32,3-.7,3.07-1.12.12-1.1-9.66-11.5-9.66-11.5" transform="translate(-41.51 -70.46)"/><path class="cls-8" d="M438.56,321.07s1.95-.19,4.08-.49" transform="translate(-41.51 -70.46)"/><path class="cls-8" d="M442.09,304.24c-2.13-2.09-4-3.88-4-3.88" transform="translate(-41.51 -70.46)"/><path class="cls-8" d="M442.24,311.89s5.89-.2,5.71-1.3c-.08-.47-1.89-2.4-3.95-4.46" transform="translate(-41.51 -70.46)"/></g></g></svg>