<svg xmlns="http://www.w3.org/2000/svg" viewBox="0 0 444.64 448.85"><defs><style>.cls-1{fill:#fff;}</style></defs><g id="Layer_5" data-name="Layer 5"><circle class="cls-1" cx="222.32" cy="224.43" r="47.57"/><path class="cls-1" d="M169.83,242.24a15.88,15.88,0,0,0,15.09-10.62,75.15,75.15,0,0,1,142.16,0,15.88,15.88,0,0,0,15.09,10.62H462.3a16,16,0,0,0,15.86-18.12C462.68,115.27,369.12,31.57,256,31.57S49.32,115.27,33.84,224.12A16,16,0,0,0,49.7,242.24Z" transform="translate(-33.68 -31.57)"/><path class="cls-1" d="M342.17,269.76a15.88,15.88,0,0,0-15.09,10.62,75.15,75.15,0,0,1-142.16,0,15.88,15.88,0,0,0-15.09-10.62H49.7a16,16,0,0,0-15.86,18.12C49.32,396.73,142.88,480.43,256,480.43s206.68-83.7,222.16-192.55a16,16,0,0,0-15.86-18.12Z" transform="translate(-33.68 -31.57)"/></g></svg>