<svg xmlns="http://www.w3.org/2000/svg" viewBox="0 0 336.27 336.27"><defs><style>.cls-1{fill:#fcfcfc;}.cls-2{fill:#e5e5e5;}.cls-3{fill:#b6302f;}.cls-4{fill:#ddd;}.cls-5,.cls-6,.cls-7,.cls-8{fill:none;stroke-miterlimit:10;}.cls-5{stroke:#e5e5e5;stroke-width:16.57px;}.cls-5,.cls-6,.cls-7{stroke-linecap:round;}.cls-6,.cls-7,.cls-8{stroke:#231f20;}.cls-6{stroke-width:10px;}.cls-7,.cls-8{stroke-width:20px;}</style></defs><g id="Layer_4" data-name="Layer 4"><path class="cls-1" d="M300.58,256a44.58,44.58,0,1,1-89.16,0H92.86a163.14,163.14,0,0,0,326.28,0Z" transform="translate(-87.86 -87.86)"/><path class="cls-2" d="M354,343.09c-13.91,23.6-48.75,57.55-84.23,75.46A163.16,163.16,0,0,0,419.14,256h-53S373.57,310,354,343.09Z" transform="translate(-87.86 -87.86)"/><path class="cls-3" d="M256,92.86A163.14,163.14,0,0,0,92.86,256H211.42a44.58,44.58,0,1,1,89.16,0H419.14A163.14,163.14,0,0,0,256,92.86Z" transform="translate(-87.86 -87.86)"/><circle class="cls-1" cx="168.14" cy="168.14" r="44.58"/><circle class="cls-4" cx="168.14" cy="168.14" r="14.89"/><path class="cls-5" d="M155.82,167.18A150.15,150.15,0,0,1,170,151.94a148.63,148.63,0,0,1,53.26-31.36" transform="translate(-87.86 -87.86)"/><path class="cls-5" d="M131.53,205.21s2.47-5.36,7.13-13.25" transform="translate(-87.86 -87.86)"/><path class="cls-6" d="M346.71,120.39c-1.71-1.14-3.43-2.25-5.18-3.33" transform="translate(-87.86 -87.86)"/><path class="cls-6" d="M404.73,323.12A163.26,163.26,0,0,0,357.15,128" transform="translate(-87.86 -87.86)"/><path class="cls-6" d="M372.35,370.35a163.61,163.61,0,0,0,25.45-33.64" transform="translate(-87.86 -87.86)"/><path class="cls-6" d="M315.62,407.9a163.07,163.07,0,0,0,41.82-24.13" transform="translate(-87.86 -87.86)"/><path class="cls-6" d="M113.62,335.69a163.38,163.38,0,0,0,178.82,79.36" transform="translate(-87.86 -87.86)"/><path class="cls-6" d="M97.91,296.42a161.41,161.41,0,0,0,7.72,22.94" transform="translate(-87.86 -87.86)"/><path class="cls-6" d="M99,211.42a164.21,164.21,0,0,0-4.86,65.29" transform="translate(-87.86 -87.86)"/><path class="cls-6" d="M108.82,185.54q-3,6.38-5.56,13" transform="translate(-87.86 -87.86)"/><path class="cls-6" d="M135.09,146.48a164.65,164.65,0,0,0-16,20.7" transform="translate(-87.86 -87.86)"/><path class="cls-6" d="M329.23,110.18A163.26,163.26,0,0,0,148,133.76" transform="translate(-87.86 -87.86)"/><circle class="cls-7" cx="168.14" cy="168.14" r="44.58"/><line class="cls-8" x1="123.55" y1="168.14" x2="5" y2="168.14"/><line class="cls-8" x1="212.72" y1="168.14" x2="331.27" y2="168.14"/></g></svg>